# xmcd
#
# Track frame offsets:
#	150
#	15100
#	29730
#	44801
#	59049
#	73135
#	88135
#	103114
#	118299
#	132092
#
# Disc length: 1969 seconds
#
# Revision: 0
# Processed by: cddbd v1.5.2PL0 Copyright (c) Steve Scherf et al.
# Submitted via: EasyCDDAExtractor 16.0.6.1
#
DISCID=9707af0a
DTITLE=Συλλογικός δίσκος - Ιστορία ρεμπέτικου και λαϊκού 05-4
DYEAR=2007
DGENRE=Ποικίλη
TTITLE0=Γεωργακοπούλου Ι.-Περπινιάδης Σ.-Τσιτσάνης Β. - Αχάριστη [Β. Τσιτσάνης
TTITLE0=]
TTITLE1=Γεωργακοπούλου Ιωάννα-Περπινιάδης Στ. - Αργοσβήνεις μόνη (Ο έρωτας)[Β.
TTITLE1=Τσιτσάνης]
TTITLE2=Κυριαζής Γιάννης-Χασκίλ Στ.-Καλδάρας Απ. - Εβίβα ρεμπέτες [Απ. Καλδάρα
TTITLE2=ς]
TTITLE3=Τσαουσάκης Πρόδρομος-Τσιτσάνης Βασίλης - Η Μαρίτσα στο χαρέμι [Β. Τσιτ
TTITLE3=σάνης]
TTITLE4=Γεωργακοπούλου Ιωάννα-Περπινιάδης Στ. - Ο τρελλός τσιγγάνος [Ι. Γεωργα
TTITLE4=κοπούλου]
TTITLE5=Χασκίλ Στέλλα - Ζηλεύει όποιος αγαπά [Σπ. Καλφόπουλος]
TTITLE6=Παπαϊωάννου Γιάννης-Μοσχονάς Οδυσσέας - Αλανιάρικο [Γ. Παπαϊωάννου]
TTITLE7=Χασκίλ Στέλλα-Τσιτσάνης Βασίλης - Αράπικο λουλούδι [Β. Τσιτσάνης]
TTITLE8=Αλιφραγκή Ανθούλα - Μόρτισσα [Μ. Βαμβακάρης]
TTITLE9=Ντούο Χάρμα-Βαμβακάρης Μάρκος - Τράβα τιμονιέρη[Σ.Περιστέρης-Μ.Μαργαρί
TTITLE9=της/Γ.Κορολόγος]
EXTD=
EXTT0=
EXTT1=
EXTT2=
EXTT3=
EXTT4=
EXTT5=
EXTT6=
EXTT7=
EXTT8=
EXTT9=
PLAYORDER=
